<mxfile host="65bd71144e">
    <diagram id="w5YlsMWzQ-K_7OHly2vb" name="Page-1">
        <mxGraphModel dx="1136" dy="614" grid="1" gridSize="10" guides="1" tooltips="1" connect="1" arrows="1" fold="1" page="1" pageScale="1" pageWidth="827" pageHeight="1169" math="0" shadow="0">
            <root>
                <mxCell id="0"/>
                <mxCell id="1" parent="0"/>
                <mxCell id="14" value="&lt;font&gt;&lt;span class=&quot;char&quot;&gt;&lt;span class=&quot;vchar&quot; id=&quot;char-node&quot;&gt;«System&lt;/span&gt;&lt;/span&gt;&lt;span class=&quot;char&quot;&gt;&lt;span class=&quot;vchar&quot; id=&quot;char-node&quot;&gt;»&lt;br&gt;&lt;div&gt;&lt;b&gt;DokChess&lt;/b&gt;&lt;/div&gt;&lt;/span&gt;&lt;/span&gt;&lt;/font&gt;" style="shape=cube;whiteSpace=wrap;html=1;boundedLbl=1;backgroundOutline=1;darkOpacity=0.05;darkOpacity2=0.1;size=10;align=center;verticalAlign=top;fillColor=#fff2cc;fontFamily=Verdana;" parent="1" vertex="1">
                    <mxGeometry x="250" y="160" width="560" height="360" as="geometry"/>
                </mxCell>
                <mxCell id="2" value="&lt;font&gt;«Component»&lt;br&gt;&lt;b&gt;Xboard-Protokol&lt;/b&gt;&lt;/font&gt;" style="html=1;dropTarget=0;verticalAlign=top;fillColor=#fff2cc;fontFamily=Verdana;" parent="1" vertex="1">
                    <mxGeometry x="290" y="240" width="180" height="90" as="geometry"/>
                </mxCell>
                <mxCell id="3" value="" style="shape=component;jettyWidth=8;jettyHeight=4;fontFamily=Verdana;" parent="2" vertex="1">
                    <mxGeometry x="1" width="20" height="20" relative="1" as="geometry">
                        <mxPoint x="-27" y="7" as="offset"/>
                    </mxGeometry>
                </mxCell>
                <mxCell id="4" value="&lt;font&gt;«Component»&lt;br&gt;&lt;b&gt;Spielregeln&lt;/b&gt;&lt;/font&gt;" style="html=1;dropTarget=0;verticalAlign=top;fillColor=#fff2cc;fontFamily=Verdana;" parent="1" vertex="1">
                    <mxGeometry x="620" y="240" width="180" height="90" as="geometry"/>
                </mxCell>
                <mxCell id="5" value="" style="shape=component;jettyWidth=8;jettyHeight=4;fontFamily=Verdana;" parent="4" vertex="1">
                    <mxGeometry x="1" width="20" height="20" relative="1" as="geometry">
                        <mxPoint x="-27" y="7" as="offset"/>
                    </mxGeometry>
                </mxCell>
                <mxCell id="6" value="&lt;font&gt;«Component»&lt;br&gt;&lt;b&gt;Engine&lt;/b&gt;&lt;/font&gt;" style="html=1;dropTarget=0;verticalAlign=top;fillColor=#fff2cc;fontFamily=Verdana;" parent="1" vertex="1">
                    <mxGeometry x="290" y="410" width="180" height="90" as="geometry"/>
                </mxCell>
                <mxCell id="7" value="" style="shape=component;jettyWidth=8;jettyHeight=4;fontFamily=Verdana;" parent="6" vertex="1">
                    <mxGeometry x="1" width="20" height="20" relative="1" as="geometry">
                        <mxPoint x="-27" y="7" as="offset"/>
                    </mxGeometry>
                </mxCell>
                <mxCell id="8" value="&lt;font&gt;«Component»&lt;br&gt;&lt;b&gt;Eröffnungen&lt;/b&gt;&lt;br&gt;&lt;/font&gt;" style="html=1;dropTarget=0;verticalAlign=top;fillColor=#fff2cc;fontFamily=Verdana;" parent="1" vertex="1">
                    <mxGeometry x="620" y="410" width="180" height="90" as="geometry"/>
                </mxCell>
                <mxCell id="9" value="" style="shape=component;jettyWidth=8;jettyHeight=4;fontFamily=Verdana;" parent="8" vertex="1">
                    <mxGeometry x="1" width="20" height="20" relative="1" as="geometry">
                        <mxPoint x="-27" y="7" as="offset"/>
                    </mxGeometry>
                </mxCell>
                <mxCell id="18" value="" style="group;fontFamily=Verdana;" parent="1" vertex="1" connectable="0">
                    <mxGeometry x="705" y="500" width="10" height="90" as="geometry"/>
                </mxCell>
                <mxCell id="19" value="" style="rounded=0;orthogonalLoop=1;jettySize=auto;html=1;endArrow=none;endFill=0;fillColor=#000000;fontFamily=Verdana;fontSize=12;" parent="18" target="21" edge="1">
                    <mxGeometry relative="1" as="geometry">
                        <mxPoint x="5" as="sourcePoint"/>
                    </mxGeometry>
                </mxCell>
                <mxCell id="20" value="" style="rounded=0;orthogonalLoop=1;jettySize=auto;html=1;endArrow=halfCircle;endFill=0;entryX=0.5;entryY=0.5;entryDx=0;entryDy=0;endSize=6;strokeWidth=1;fillColor=#000000;fontFamily=Verdana;fontSize=12;" parent="18" target="21" edge="1">
                    <mxGeometry relative="1" as="geometry">
                        <mxPoint x="5" y="90" as="sourcePoint"/>
                    </mxGeometry>
                </mxCell>
                <mxCell id="21" value="" style="ellipse;whiteSpace=wrap;html=1;fontFamily=Verdana;fontSize=12;fontColor=#000000;align=center;strokeColor=#000000;fillColor=#ffffff;points=[];aspect=fixed;resizable=0;" parent="18" vertex="1">
                    <mxGeometry y="40" width="10" height="10" as="geometry"/>
                </mxCell>
                <mxCell id="22" value="" style="group;fontFamily=Verdana;rotation=-180;" parent="1" vertex="1" connectable="0">
                    <mxGeometry x="240" y="210" width="10" height="120" as="geometry"/>
                </mxCell>
                <mxCell id="23" value="" style="rounded=0;orthogonalLoop=1;jettySize=auto;html=1;endArrow=none;endFill=0;fillColor=#000000;fontFamily=Verdana;fontSize=12;" parent="22" target="25" edge="1">
                    <mxGeometry relative="1" as="geometry">
                        <mxPoint x="48" y="72" as="sourcePoint"/>
                    </mxGeometry>
                </mxCell>
                <mxCell id="24" value="" style="rounded=0;orthogonalLoop=1;jettySize=auto;html=1;endArrow=halfCircle;endFill=0;entryX=0.5;entryY=0.5;entryDx=0;entryDy=0;endSize=6;strokeWidth=1;fillColor=#000000;fontFamily=Verdana;fontSize=12;" parent="22" target="25" edge="1">
                    <mxGeometry relative="1" as="geometry">
                        <mxPoint x="-98" y="71" as="sourcePoint"/>
                    </mxGeometry>
                </mxCell>
                <mxCell id="25" value="" style="ellipse;whiteSpace=wrap;html=1;fontFamily=Verdana;fontSize=12;fontColor=#000000;align=center;strokeColor=#000000;fillColor=#ffffff;points=[];aspect=fixed;resizable=0;rotation=-630;" parent="22" vertex="1">
                    <mxGeometry x="-26" y="66" width="10" height="10" as="geometry"/>
                </mxCell>
                <mxCell id="30" value="&lt;font&gt;&lt;span class=&quot;char&quot;&gt;&lt;span class=&quot;vchar&quot; id=&quot;char-node&quot;&gt;«External System&lt;/span&gt;&lt;/span&gt;&lt;span class=&quot;char&quot;&gt;&lt;span class=&quot;vchar&quot; id=&quot;char-node&quot;&gt;»&lt;br&gt;&lt;div&gt;&lt;b&gt;Xboard-Client&lt;/b&gt;&lt;/div&gt;&lt;/span&gt;&lt;/span&gt;&lt;/font&gt;" style="shape=cube;whiteSpace=wrap;html=1;boundedLbl=1;backgroundOutline=1;darkOpacity=0.05;darkOpacity2=0.1;size=10;align=center;verticalAlign=top;fillColor=#fff2cc;fontFamily=Verdana;" parent="1" vertex="1">
                    <mxGeometry x="30" y="220" width="120" height="130" as="geometry"/>
                </mxCell>
                <mxCell id="32" value="&lt;font&gt;&lt;span class=&quot;char&quot;&gt;&lt;span class=&quot;vchar&quot; id=&quot;char-node&quot;&gt;«External System&lt;/span&gt;&lt;/span&gt;&lt;span class=&quot;char&quot;&gt;&lt;span class=&quot;vchar&quot; id=&quot;char-node&quot;&gt;»&lt;br&gt;&lt;div&gt;&lt;b&gt;Polyglot Opening&lt;br&gt;Book&lt;/b&gt;&lt;/div&gt;&lt;/span&gt;&lt;/span&gt;&lt;/font&gt;" style="shape=cube;whiteSpace=wrap;html=1;boundedLbl=1;backgroundOutline=1;darkOpacity=0.05;darkOpacity2=0.1;size=10;align=center;verticalAlign=top;fillColor=#fff2cc;fontFamily=Verdana;" parent="1" vertex="1">
                    <mxGeometry x="642" y="590" width="136" height="120" as="geometry"/>
                </mxCell>
                <mxCell id="45" value="Functions+Data@Runtime" style="rounded=0;whiteSpace=wrap;html=1;" parent="1" vertex="1">
                    <mxGeometry x="104" y="585" width="216" height="75" as="geometry"/>
                </mxCell>
                <mxCell id="46" value="&amp;nbsp;Ein/Ausgabe" style="text;html=1;align=center;verticalAlign=middle;resizable=0;points=[];autosize=1;strokeColor=none;fillColor=none;" parent="1" vertex="1">
                    <mxGeometry x="160" y="240" width="90" height="30" as="geometry"/>
                </mxCell>
                <mxCell id="47" value="" style="endArrow=open;html=1;fillColor=#000000;fontFamily=Verdana;fontSize=12;endFill=0;dashed=1;exitX=0.25;exitY=1;exitDx=0;exitDy=0;entryX=0.25;entryY=0;entryDx=0;entryDy=0;" parent="1" source="2" target="6" edge="1">
                    <mxGeometry relative="1" as="geometry">
                        <mxPoint x="360" y="480" as="sourcePoint"/>
                        <mxPoint x="459.9999999999999" y="480" as="targetPoint"/>
                    </mxGeometry>
                </mxCell>
                <mxCell id="48" value="&lt;span style=&quot;font-size: 12px; background-color: rgb(248, 249, 250);&quot;&gt;«use»&lt;br&gt;ziehen&lt;br&gt;&lt;/span&gt;" style="edgeLabel;resizable=0;html=1;align=center;verticalAlign=middle;fontFamily=Verdana;" parent="47" connectable="0" vertex="1">
                    <mxGeometry relative="1" as="geometry">
                        <mxPoint as="offset"/>
                    </mxGeometry>
                </mxCell>
                <mxCell id="51" value="" style="endArrow=open;html=1;fillColor=#000000;fontFamily=Verdana;fontSize=12;endFill=0;dashed=1;exitX=1;exitY=0.5;exitDx=0;exitDy=0;entryX=0;entryY=0.5;entryDx=0;entryDy=0;" parent="1" source="2" target="4" edge="1">
                    <mxGeometry relative="1" as="geometry">
                        <mxPoint x="435" y="420" as="sourcePoint"/>
                        <mxPoint x="435" y="340" as="targetPoint"/>
                    </mxGeometry>
                </mxCell>
                <mxCell id="52" value="&lt;span style=&quot;font-size: 12px; background-color: rgb(248, 249, 250);&quot;&gt;«use»&lt;br&gt;ermittleGueltigenZug&lt;br&gt;&lt;/span&gt;" style="edgeLabel;resizable=0;html=1;align=center;verticalAlign=middle;fontFamily=Verdana;" parent="51" connectable="0" vertex="1">
                    <mxGeometry relative="1" as="geometry">
                        <mxPoint y="-21" as="offset"/>
                    </mxGeometry>
                </mxCell>
                <mxCell id="55" value="" style="endArrow=open;html=1;fillColor=#000000;fontFamily=Verdana;fontSize=12;endFill=0;dashed=1;exitX=1;exitY=0.25;exitDx=0;exitDy=0;entryX=0;entryY=0.25;entryDx=0;entryDy=0;" parent="1" source="6" target="8" edge="1">
                    <mxGeometry relative="1" as="geometry">
                        <mxPoint x="435" y="420" as="sourcePoint"/>
                        <mxPoint x="435" y="340" as="targetPoint"/>
                    </mxGeometry>
                </mxCell>
                <mxCell id="56" value="&lt;span style=&quot;font-size: 12px; background-color: rgb(248, 249, 250);&quot;&gt;«use»&lt;br&gt;liefereErstenZug&lt;br&gt;&lt;/span&gt;" style="edgeLabel;resizable=0;html=1;align=center;verticalAlign=middle;fontFamily=Verdana;" parent="55" connectable="0" vertex="1">
                    <mxGeometry relative="1" as="geometry">
                        <mxPoint as="offset"/>
                    </mxGeometry>
                </mxCell>
                <mxCell id="59" value="" style="endArrow=open;html=1;fillColor=#000000;fontFamily=Verdana;fontSize=12;endFill=0;dashed=1;entryX=1;entryY=0;entryDx=0;entryDy=0;exitX=0;exitY=1;exitDx=0;exitDy=0;" parent="1" source="4" target="6" edge="1">
                    <mxGeometry relative="1" as="geometry">
                        <mxPoint x="470" y="410" as="sourcePoint"/>
                        <mxPoint x="620" y="330" as="targetPoint"/>
                    </mxGeometry>
                </mxCell>
                <mxCell id="60" value="&lt;span style=&quot;font-size: 12px; background-color: rgb(248, 249, 250);&quot;&gt;«use»&lt;br&gt;liefereGueltigenZug&lt;br&gt;&lt;/span&gt;" style="edgeLabel;resizable=0;html=1;align=center;verticalAlign=middle;fontFamily=Verdana;" parent="59" connectable="0" vertex="1">
                    <mxGeometry relative="1" as="geometry">
                        <mxPoint x="5" y="-10" as="offset"/>
                    </mxGeometry>
                </mxCell>
                <mxCell id="63" value="leseDatei" style="text;html=1;align=center;verticalAlign=middle;resizable=0;points=[];autosize=1;strokeColor=none;fillColor=none;" parent="1" vertex="1">
                    <mxGeometry x="715" y="540" width="70" height="30" as="geometry"/>
                </mxCell>
            </root>
        </mxGraphModel>
    </diagram>
</mxfile>